# xmcd CD database file
#
# Track frame offsets:
#	150
#	53468
#	114698
#	117221
#	154619
#	160607
#	178699
#	182098
#	212161
#	243841
#	275910
#	279279
#	300205
#	329099
#
# Disc length: 4436 seconds
#
# Revision: 0
# Processed by: cddbd v1.5.2PL0 Copyright (c) Steve Scherf et al.
# Submitted via: CDex 1.70beta2
#
DISCID=bc11520e
DTITLE=Kikuchi Art Quartet - Rearmed Flowers
DYEAR=1998
DGENRE=Jazz
TTITLE0=Anaclasis
TTITLE1=Il Canto Sospeso
TTITLE2=Uios
TTITLE3=Flare Of The Sun
TTITLE4=Yios
TTITLE5=Elixir
TTITLE6=Logic Of Amentia
TTITLE7=Blind March
TTITLE8=Viola From Europe
TTITLE9=Cipherize Sonic
TTITLE10=Enamel Kanon
TTITLE11=April Erotomaniac
TTITLE12=Nin Nin
TTITLE13=Lisa
EXTD=YEAR: 1998
EXTT0=
EXTT1=
EXTT2=
EXTT3=
EXTT4=
EXTT5=
EXTT6=
EXTT7=
EXTT8=
EXTT9=
EXTT10=
EXTT11=
EXTT12=
EXTT13=
PLAYORDER=
